# AST/ASF file generated using VICON BodyLanguage
# -----------------------------------------------
:version 1.10
:name VICON
:units
  mass 1.0
  length 0.45
  angle deg
:documentation
   .ast/.asf automatically generated from VICON data using
   VICON BodyBuilder and BodyLanguage model FoxedUp or BRILLIANT.MOD
:root
   order TX TY TZ RX RY RZ
   axis XYZ
   position 0 0 0  
   orientation 0 0 0 
:bonedata
  begin
     id 1 
     name lhipjoint
     direction 0.692814 -0.645514 0.321437 
     length 2.38754 
     axis 0 0 0  XYZ
  end
  begin
     id 2 
     name lfemur
     direction 0.34202 -0.939693 0  
     length 6.41921  
     axis 0 0 20  XYZ
    dof rx ry rz
    limits (-160.0 20.0)
           (-70.0 70.0)
           (-60.0 70.0)
  end
  begin
     id 3 
     name ltibia
     direction 0.34202 -0.939693 0   
     length 6.98247   
     axis 0 0 20   XYZ
    dof rx
    limits (-10.0 170.0)
  end
  begin
     id 4 
     name lfoot
     direction 0.0947186 -0.260237 0.960888   
     length 1.83034   
     axis -90 7.62852e-016 20   XYZ
    dof rx rz
    limits (-45.0 90.0)
           (-70.0 20.0)
  end
  begin
     id 5 
     name ltoes
     direction 1.53538e-011 -4.21952e-011 1   
     length 0.920499   
     axis -90 7.62852e-016 20   XYZ
    dof rx
    limits (-90.0 20.0)
  end
  begin
     id 6 
     name rhipjoint
     direction -0.631686 -0.693949 0.345555   
     length 2.2209  
     axis 0 0 0  XYZ 
  end
  begin
     id 7 
     name rfemur
     direction -0.34202 -0.939693 0   
     length 6.49542   
     axis 0 0 -20   XYZ
    dof rx ry rz
    limits (-160.0 20.0)
           (-70.0 70.0)
           (-70.0 60.0)
  end
  begin
     id 8 
     name rtibia
     direction -0.34202 -0.939693 0   
     length 7.21712   
     axis 0 0 -20   XYZ
    dof rx
    limits (-10.0 170.0)
 end
 begin
     id 9 
     name rfoot
     direction -0.0825378 -0.226771 0.970444   
     length 1.89724  
     axis -90 -7.62852e-016 -20   XYZ
    dof rx rz
    limits (-45.0 90.0)
           (-20.0 70.0)
  end
  begin
     id 10 
     name rtoes
     direction -1.53515e-011 -4.22016e-011 1   
     length 0.955868   
     axis -90 -7.62852e-016 -20   XYZ
    dof rx
    limits (-90.0 20.0)
  end
  begin
     id 11 
     name lowerback
     direction -0.0104711 0.984802 -0.173368   
     length 1.84931   
     axis 0 0 0   XYZ
    dof rx ry rz
    limits (-20.0 45.0)
           (-30.0 30.0)
           (-30.0 30.0)
  end
  begin
     id 12 
     name upperback
     direction -0.00286433 0.999996 -0.000382853   
     length 1.85768   
     axis 0 0 0   XYZ
    dof rx ry rz
    limits (-20.0 45.0)
           (-30.0 30.0)
           (-30.0 30.0)
  end
  begin
     id 13 
     name thorax
     direction 0.00167534 0.996793 0.0800069   
     length 1.92   
     axis 0 0 0   XYZ
    dof rx ry rz
    limits (-20.0 45.0)
           (-30.0 30.0)
           (-30.0 30.0)
  end
  begin
     id 14 
     name lowerneck
     direction -0.0672491 0.995415 0.068018   
     length 1.58923   
     axis 0 0 0   XYZ
    dof rx ry rz
    limits (-20.0 45.0)
           (-30.0 30.0)
           (-30.0 30.0)
  end
  begin
     id 15 
     name upperneck
     direction 0.0958019 0.982476 -0.159884   
     length 1.60189   
     axis 0 0 0   XYZ
    dof rx ry rz
    limits (-20.0 45.0)
           (-30.0 30.0)
           (-30.0 30.0)
  end
  begin
     id 16
     name head
     direction 0.032989 0.997338 -0.0650226  
     length 1.61681  
     axis 0 0 0   XYZ
    dof rx ry rz
    limits (-20.0 45.0)
           (-30.0 30.0)
           (-30.0 30.0)
  end
  begin
     id 17 
     name lclavicle
     direction 0.954279 0.298875 -0.00496069  
     length 2.99449  
     axis 0 0 0   XYZ
    dof ry rz
    limits (-20.0 10.0)
           (0.0 20.0)
  end
  begin
     id 18 
     name lhumerus
     direction 1 -4.48985e-011 -4.2057e-027   
     length 4.79185   
     axis 180 -30 -90   XYZ
    dof rx ry rz
    limits (-60.0 90.0)
           (-90.0 90.0)
           (-90.0 90.0)
  end
  begin
     id 19
     name lradius
     direction 1 -4.48945e-011 1.15441e-028   
     length 2.65553   
     axis 180 -30 -90   XYZ
    dof rx
    limits (-10.0 170.0)
  end
  begin
     id 20
     name lwrist
     direction 1 -4.4899e-011 4.8894e-028   
     length 1.32777   
     axis -2.56392e-016 90 90   XYZ
    dof ry
    limits (-180.0 0.0)
 end
  begin
     id 21 
     name lhand
     direction 1 -4.48908e-011 9.7788e-028   
     length 0.743904   
     axis -6.23971e-016 90 90   XYZ
    dof rx rz
    limits (-90.0 90.0)
           (-45.0 45.0)
  end
  begin
     id 22 
     name lfingers
     direction 1 -4.49068e-011 1.95576e-027   
     length 0.599754   
     axis -1.24794e-015 90 90   XYZ
    dof rx
    limits (0.0 90.0)
  end
  begin
     id 23
     name lthumb
     direction 0.707107 -6.34883e-011 0.707107   
     length 0.861131   
     axis -90 45 2.85299e-015   XYZ
    dof rx rz
    limits (-45.0 45.0)
           (-45.0 45.0)
  end
  begin
     id 24 
     name rclavicle
     direction -0.957921 0.286916 0.00811568   
     length 3.06817  
     axis 0 0 0   XYZ 
    dof ry rz
    limits (-10.0 20.0)
           (-20.0 0.0)
  end
  begin
     id 25 
     name rhumerus
     direction -1 -4.48971e-011 -3.07942e-027  
     length 4.77254   
     axis 180 30 90   XYZ
    dof rx ry rz
    limits (-90.0 60.0)
           (-90.0 90.0)
           (-90.0 90.0)
  end
  begin
     id 26 
     name rradius
     direction -1 -4.48957e-011 -9.6815e-028   
     length 2.75995   
     axis 180 30 90   XYZ
    dof rx
    limits (-10.0 170.0)
  end
  begin
     id 27 
     name rwrist
     direction -1 -4.48979e-011 4.8894e-028   
     length 1.37997   
     axis -2.56392e-016 -90 -90   XYZ
    dof ry
    limits (-180.0 0.0)
  end
  begin
     id 28
     name rhand
     direction -1 -4.48906e-011 9.7788e-028   
     length 0.701619   
     axis -6.23971e-016 -90 -90   XYZ
    dof rx rz
    limits (-90.0 90.0)
           (-45.0 45.0)
  end
  begin
     id 29
     name rfingers
     direction -1 -4.49018e-011 1.95576e-027   
     length 0.565663   
     axis -1.24794e-015 -90 -90   XYZ
    dof rx
    limits (0.0 90.0)
  end
  begin
     id 30
     name rthumb
     direction -0.707107 -6.34881e-011 0.707107   
     length 0.812183   
     axis -90 -45 -2.85299e-015   XYZ
    dof rx rz
    limits (-45.0 45.0)
           (-45.0 45.0)
  end
:hierarchy
  begin
    root lhipjoint rhipjoint lowerback
    lhipjoint lfemur
    lfemur ltibia
    ltibia lfoot
    lfoot ltoes
    rhipjoint rfemur
    rfemur rtibia
    rtibia rfoot
    rfoot rtoes
    lowerback upperback
    upperback thorax
    thorax lowerneck lclavicle rclavicle
    lowerneck upperneck
    upperneck head
    lclavicle lhumerus
    lhumerus lradius
    lradius lwrist
    lwrist lhand lthumb
    lhand lfingers
    rclavicle rhumerus
    rhumerus rradius
    rradius rwrist
    rwrist rhand rthumb
    rhand rfingers
  end

#!OML:ASF F:\VICON\USERDATA\INSTALL\rory3\rory3.ASF
:FULLY-SPECIFIED
:DEGREES
1
root -16.6006 15.8086 11.0482 -171.418 65.5658 -173.49
lowerback 6.77619 -1.158 -0.867523
upperback -1.86368 -1.60993 0.249563
thorax -5.71151 -0.759165 0.933319
lowerneck -2.7139 -14.8645 -19.0975
upperneck 21.674 -20.9541 12.3257
head 10.8072 -10.1708 4.77281
rclavicle 1.36043e-014 5.56597e-015
rhumerus -28.6068 3.63367 -92.9606
rradius 23.075
rwrist 16.2352
rhand -14.3021 15.2809
rfingers 7.12502
rthumb 11.8378 -14.3645
lclavicle 1.36043e-014 5.56597e-015
lhumerus -30.0606 3.84893 87.4297
lradius 22.9301
lwrist -5.52295
lhand -10.9539 14.5012
lfingers 7.12502
lthumb 15.0649 43.9331
rfemur -8.93509 10.7929 23.2793
rtibia 27.2806
rfoot -17.6942 -14.6535
rtoes -3.80339
lfemur -11.1938 -8.63114 -21.0449
ltibia 29.2343
lfoot -20.1877 15.4683
ltoes -0.284049
2
root -16.5997 15.8063 11.0359 -171.544 65.4958 -173.663
lowerback 6.73112 -1.13447 -0.876743
upperback -1.92244 -1.57877 0.253423
thorax -5.74785 -0.742794 0.938726
lowerneck -3.30328 -14.6009 -18.7687
upperneck 22.3625 -20.4436 11.8443
head 10.9832 -9.91053 4.61616
rclavicle -1.01877e-014 3.18055e-015
rhumerus -28.6478 3.31186 -92.6885
rradius 22.8809
rwrist 16.5232
rhand -14.2263 15.5958
rfingers 7.12502
rthumb 11.9109 -14.0454
lclavicle -1.01877e-014 3.18055e-015
lhumerus -29.9606 3.88876 87.4434
lradius 23.1114
lwrist -5.97383
lhand -9.58401 14.9762
lfingers 7.12502
lthumb 16.3842 44.3042
rfemur -8.96352 10.5569 23.144
rtibia 27.3465
rfoot -17.8789 -14.5132
rtoes -3.96242
lfemur -11.2117 -8.84481 -21.1818
ltibia 29.2567
lfoot -20.4081 15.2871
ltoes 1.71096
3
root -16.6018 15.8061 11.0285 -171.582 65.3226 -173.886
lowerback 6.5979 -1.16502 -0.9077
upperback -2.00947 -1.62177 0.240193
thorax -5.76194 -0.762572 0.945274
lowerneck -3.90541 -14.2391 -18.4088
upperneck 23.0508 -19.8069 11.4299
head 11.1507 -9.58572 4.50264
rclavicle -2.86374e-014 -2.38542e-015
rhumerus -28.6254 2.9391 -92.4452
rradius 22.6265
rwrist 16.8994
rhand -14.1572 15.7178
rfingers 7.12502
rthumb 11.9776 -13.9195
lclavicle -2.86374e-014 -2.38542e-015
lhumerus -29.8564 3.70368 87.5285
lradius 23.3348
lwrist -5.76975
lhand -9.36103 14.8895
lfingers 7.12502
lthumb 16.5989 44.1996
rfemur -9.13081 10.3401 22.9939
rtibia 27.3764
rfoot -17.9986 -14.4558
rtoes -4.3813
lfemur -11.4753 -9.03018 -21.2721
ltibia 29.394
lfoot -20.6305 15.5983
ltoes 0.217829
4
root -16.607 15.8056 11.0249 -171.392 65.051 -173.835
lowerback 6.50086 -1.21899 -0.815025
upperback -2.03851 -1.68567 0.222934
thorax -5.73883 -0.797779 0.880543
lowerneck -4.5859 -13.7934 -17.8551
upperneck 23.6958 -19.0513 10.9883
head 11.2775 -9.19303 4.36921
rclavicle 3.00041e-014 -3.57812e-015
rhumerus -28.4792 2.41605 -92.2167
rradius 22.29
rwrist 17.356
rhand -14.2232 15.7607
rfingers 7.12502
rthumb 11.9139 -13.8803
lclavicle 3.00041e-014 -3.57812e-015
lhumerus -29.6712 3.12849 87.7181
lradius 23.5631
lwrist -4.90231
lhand -10.0836 14.6857
lfingers 7.12502
lthumb 15.9032 44.0527
rfemur -9.27614 10.1264 22.9934
rtibia 27.407
rfoot -18.1184 -14.4616
rtoes -4.65918
lfemur -11.7536 -9.17987 -21.2117
ltibia 29.5336
lfoot -20.7579 15.85
ltoes -1.30478
5
root -16.6096 15.8028 11.0177 -170.918 64.809 -173.386
lowerback 6.41313 -1.21272 -0.559673
upperback -2.01303 -1.65275 0.252114
thorax -5.66887 -0.790684 0.761325
lowerneck -5.36532 -13.4346 -17.2125
upperneck 24.4288 -18.3874 10.3905
head 11.4555 -8.84519 4.14007
rclavicle 5.85172e-015 -5.1684e-015
rhumerus -28.2791 1.5778 -91.8209
rradius 21.9054
rwrist 18.0606
rhand -14.5975 15.5927
rfingers 7.12502
rthumb 11.553 -14.0689
lclavicle 5.85172e-015 -5.1684e-015
lhumerus -29.3675 2.47205 87.9987
lradius 23.6733
lwrist -3.82932
lhand -11.1809 14.5189
lfingers 7.12502
lthumb 14.8462 43.9671
rfemur -9.31916 10.0414 23.1868
rtibia 27.4243
rfoot -18.249 -14.5204
rtoes -4.77409
lfemur -11.9292 -9.31057 -20.996
ltibia 29.7027
lfoot -20.7462 15.6398
ltoes -0.714982
6
root -16.6116 15.7975 11.006 -170.774 64.5771 -173.241
lowerback 6.40904 -1.16121 -0.408879
upperback -2.03078 -1.56855 0.291708
thorax -5.68936 -0.753453 0.708704
lowerneck -6.10635 -13.2207 -16.7743
upperneck 25.299 -17.9274 9.83287
head 11.7522 -8.603 3.91719
rclavicle -4.70126e-014 1.19271e-015
rhumerus -28.2216 0.472061 -91.1744
rradius 21.5422
rwrist 19.1219
rhand -15.1832 15.1079
rfingers 7.12502
rthumb 10.9881 -14.5845
lclavicle -4.70126e-014 1.19271e-015
lhumerus -29.1533 1.95526 88.3043
lradius 23.8763
lwrist -3.29376
lhand -11.5722 14.5969
lfingers 7.12502
lthumb 14.4692 44.0725
rfemur -9.27327 9.92775 23.2357
rtibia 27.3907
rfoot -18.4216 -14.5326
rtoes -4.8873
lfemur -12.0338 -9.43729 -20.9444
ltibia 29.9059
lfoot -20.8009 15.32
ltoes 0.231876
7
root -16.6114 15.7943 10.9923 -170.786 64.3749 -173.226
lowerback 6.45183 -1.11468 -0.325134
upperback -2.09066 -1.49436 0.372221
thorax -5.77768 -0.717431 0.73905
lowerneck -6.63324 -12.9923 -16.5799
upperneck 26.0873 -17.4666 9.42298
head 12.0281 -8.37867 3.79648
rclavicle -1.46479e-014 -3.97569e-015
rhumerus -28.3481 -0.0309859 -90.6416
rradius 21.3469
rwrist 19.5807
rhand -15.4398 14.8738
rfingers 7.12502
rthumb 10.7405 -14.8316
lclavicle -1.46479e-014 -3.97569e-015
lhumerus -29.076 1.50167 88.7123
lradius 24.1174
lwrist -2.66148
lhand -11.857 14.7524
lfingers 7.12502
lthumb 14.1948 44.2474
rfemur -9.13324 9.83267 23.2343
rtibia 27.2951
rfoot -18.6203 -14.5506
rtoes -4.88873
lfemur -12.1336 -9.51393 -20.9534
ltibia 30.1579
lfoot -21.0012 15.1798
ltoes 0.197747
8
root -16.6086 15.7929 10.9761 -170.759 64.2288 -173.175
lowerback 6.44415 -1.09034 -0.263745
upperback -2.12602 -1.44987 0.480015
thorax -5.80979 -0.695112 0.812043
lowerneck -7.14586 -12.6644 -16.3218
upperneck 26.72 -16.8491 8.96703
head 12.2102 -8.09046 3.67853
rclavicle 1.3244e-014 -9.54166e-015
rhumerus -28.4955 -0.0670093 -90.2997
rradius 21.306
rwrist 19.6016
rhand -15.1105 15.2073
rfingers 7.12502
rthumb 11.0582 -14.4814
lclavicle 1.3244e-014 -9.54166e-015
lhumerus -28.9376 1.1995 89.0511
lradius 24.2589
lwrist -2.09388
lhand -11.7027 14.1816
lfingers 7.12502
lthumb 14.3435 43.6661
rfemur -8.98033 9.72438 23.2344
rtibia 27.2028
rfoot -18.7617 -14.5748
rtoes -5.0592
lfemur -12.2529 -9.65736 -20.9475
ltibia 30.4233
lfoot -21.2189 15.1055
ltoes 0.0732046
9
root -16.6082 15.789 10.9616 -170.185 64.1412 -172.533
lowerback 6.45946 -1.04294 0.0353777
upperback -2.14934 -1.35116 0.622115
thorax -5.84802 -0.653847 0.781522
lowerneck -7.67721 -12.3079 -15.9951
upperneck 27.2901 -16.2105 8.56528
head 12.3731 -7.78373 3.57285
rclavicle 5.53553e-014 7.95139e-015
rhumerus -28.618 0.021565 -90.1034
rradius 21.3151
rwrist 19.4538
rhand -14.5357 15.7671
rfingers 7.12502
rthumb 11.6125 -13.8911
lclavicle 5.53553e-014 7.95139e-015
lhumerus -28.7898 0.919793 89.2768
lradius 24.4442
lwrist -1.78818
lhand -11.0449 13.2644
lfingers 7.12502
lthumb 14.9772 42.7028
rfemur -8.89895 9.74767 23.5093
rtibia 27.1437
rfoot -18.8603 -14.6161
rtoes -5.09557
lfemur -12.3777 -9.75144 -20.6627
ltibia 30.6618
lfoot -21.5746 15.1429
ltoes -0.398818
10
root -16.6091 15.782 10.9491 -169.65 64.0737 -171.896
lowerback 6.52707 -0.970655 0.305965
upperback -2.15392 -1.22272 0.736776
thorax -5.89628 -0.597495 0.7358
lowerneck -8.14722 -11.9783 -15.7524
upperneck 27.8529 -15.6571 8.35673
head 12.568 -7.50498 3.54068
rclavicle 1.90523e-014 5.96354e-015
rhumerus -28.7192 -0.0263023 -89.8577
rradius 21.2963
rwrist 19.4227
rhand -14.2988 16.0737
rfingers 7.12502
rthumb 11.841 -13.5715
lclavicle 1.90523e-014 5.96354e-015
lhumerus -28.6057 0.779428 89.4361
lradius 24.6006
lwrist -1.55873
lhand -11.0037 13.4577
lfingers 7.12502
lthumb 15.0169 42.8932
rfemur -8.84091 9.85405 23.8001
rtibia 27.1689
rfoot -18.9545 -14.7122
rtoes -5.2525
lfemur -12.4199 -9.65281 -20.3877
ltibia 30.8349
lfoot -21.8696 15.0945
ltoes -0.961666
11
root -16.605 15.7751 10.9297 -170.174 63.9749 -172.343
lowerback 6.58967 -0.929321 0.129548
upperback -2.12384 -1.18411 0.727134
thorax -5.89731 -0.572387 0.821196
lowerneck -8.51082 -11.6269 -15.3975
upperneck 28.2536 -15.0781 8.06866
head 12.6567 -7.22041 3.47054
rclavicle 2.15184e-014 1.59028e-015
rhumerus -28.8007 -0.0464224 -89.5823
rradius 21.22
rwrist 19.5092
rhand -14.4011 15.9173
rfingers 7.12502
rthumb 11.7423 -13.7335
lclavicle 2.15184e-014 1.59028e-015
lhumerus -28.4318 0.773431 89.543
lradius 24.7329
lwrist -1.40835
lhand -11.6305 14.1551
lfingers 7.12502
lthumb 14.413 43.6347
rfemur -8.68114 9.80146 23.5674
rtibia 27.2681
rfoot -19.175 -14.6881
rtoes -5.26929
lfemur -12.3353 -9.63497 -20.6575
ltibia 30.9901
lfoot -21.8997 14.9004
ltoes -1.59876
12
root -16.5993 15.7692 10.9082 -170.865 63.9061 -172.993
lowerback 6.63189 -0.863964 -0.118629
upperback -2.09755 -1.12342 0.664413
thorax -5.89092 -0.535009 0.88871
lowerneck -8.77704 -11.3055 -14.9906
upperneck 28.5234 -14.5654 7.78525
head 12.681 -6.96574 3.38483
rclavicle 1.50269e-014 1.59028e-015
rhumerus -28.8178 -0.42024 -89.229
rradius 21.002
rwrist 19.8986
rhand -14.4534 15.9193
rfingers 7.12502
rthumb 11.6919 -13.7344
lclavicle 1.50269e-014 1.59028e-015
lhumerus -28.3358 0.472585 89.6864
lradius 24.9509
lwrist -1.0788
lhand -12.0475 14.2376
lfingers 7.12502
lthumb 14.0112 43.7454
rfemur -8.58902 9.6137 23.2071
rtibia 27.4442
rfoot -19.3545 -14.6223
rtoes -5.67286
lfemur -12.2818 -9.67372 -21.018
ltibia 31.1645
lfoot -21.9258 14.6921
ltoes -2.0344
13
root -16.6029 15.7621 10.8919 -170.505 63.8771 -172.589
lowerback 6.70924 -0.768814 0.119885
upperback -2.10458 -0.972429 0.692032
thorax -5.9483 -0.468303 0.767421
lowerneck -8.95608 -10.9999 -14.7305
upperneck 28.7462 -14.1203 7.71673
head 12.7146 -6.73477 3.39507
rclavicle 5.09013e-014 -7.15625e-015
rhumerus -28.6885 -1.38625 -88.7746
rradius 20.6158
rwrist 20.8262
rhand -14.4563 16.048
rfingers 7.12502
rthumb 11.6891 -13.6059
lclavicle 5.09013e-014 -7.15625e-015
lhumerus -28.2322 0.0633096 89.812
lradius 25.2268
lwrist -0.715744
lhand -12.0434 14.289
lfingers 7.12502
lthumb 14.0152 43.7965
rfemur -8.70725 9.55164 23.3397
rtibia 27.6851
rfoot -19.4312 -14.6787
rtoes -6.08612
lfemur -12.4122 -9.54594 -20.8368
ltibia 31.3739
lfoot -22.0425 14.4317
ltoes -2.24606
14
root -16.6133 15.7509 10.8779 -169.809 63.9142 -171.813
lowerback 6.90412 -0.658968 0.49524
upperback -2.12911 -0.783115 0.781629
thorax -6.09171 -0.386273 0.630768
lowerneck -9.18215 -10.649 -14.5658
upperneck 28.9702 -13.62 7.76755
head 12.7715 -6.47433 3.47358
rclavicle -1.02809e-014 3.57812e-015
rhumerus -28.6168 -2.10734 -88.3957
rradius 20.389
rwrist 21.5224
rhand -14.4773 16.0847
rfingers 7.12502
rthumb 11.6688 -13.5703
lclavicle -1.02809e-014 3.57812e-015
lhumerus -28.1188 -0.238942 89.9335
lradius 25.5097
lwrist -0.388787
lhand -12.1167 14.5138
lfingers 7.12502
lthumb 13.9445 44.0262
rfemur -8.8984 9.70142 23.6457
rtibia 27.9883
rfoot -19.5122 -14.8127
rtoes -6.24756
lfemur -12.5752 -9.32421 -20.4907
ltibia 31.6324
lfoot -22.1732 14.2056
ltoes -2.92528
15
root -16.6181 15.7403 10.8629 -169.565 63.875 -171.474
lowerback 7.09208 -0.592174 0.616084
upperback -2.11905 -0.675206 0.859799
thorax -6.18994 -0.335649 0.633714
lowerneck -9.50933 -10.3033 -14.2946
upperneck 29.1752 -13.0907 7.65065
head 12.815 -6.20869 3.46978
rclavicle 1.47287e-014 1.03368e-014
rhumerus -28.5209 -2.63758 -88.0102
rradius 20.1281
rwrist 22.0507
rhand -14.4726 16.1984
rfingers 7.12502
rthumb 11.6733 -13.4564
lclavicle 1.47287e-014 1.03368e-014
lhumerus -28.0777 -0.471058 90.0844
lradius 25.8926
lwrist 0.0191522
lhand -12.2107 14.615
lfingers 7.12502
lthumb 13.8539 44.1336
rfemur -9.05679 9.82425 23.7954
rtibia 28.3745
rfoot -19.4374 -15.1535
rtoes -7.16551
lfemur -12.6499 -9.23052 -20.3562
ltibia 31.921
lfoot -22.3417 14.1444
ltoes -4.18927
